<?xml version="1.0" standalone="no"?>
<!DOCTYPE svg PUBLIC "-//W3C//DTD SVG 20010904//EN"
 "http://www.w3.org/TR/2001/REC-SVG-20010904/DTD/svg10.dtd">
<svg version="1.0" xmlns="http://www.w3.org/2000/svg"
 width="720.000000pt" height="720.000000pt" viewBox="0 0 720.000000 720.000000"
 preserveAspectRatio="xMidYMid meet">
<metadata>
Created by potrace 1.11, written by Peter Selinger 2001-2013
</metadata>
<g transform="translate(0.000000,720.000000) scale(0.100000,-0.100000)"
fill="#000000" stroke="none">
<path d="M3537 5754 c-1 -1 -32 -4 -68 -8 -171 -16 -374 -92 -530 -198 -64
-43 -231 -201 -262 -248 -10 -14 -33 -49 -52 -77 -144 -217 -210 -500 -181
-778 18 -179 94 -440 201 -695 54 -127 202 -431 259 -530 14 -25 29 -52 33
-60 3 -8 17 -32 30 -53 14 -22 22 -41 20 -43 -2 -3 -83 -32 -178 -64 -96 -33
-174 -60 -174 -60 0 -2 -480 -164 -505 -171 -19 -6 -44 -14 -55 -19 -11 -5
-69 -26 -130 -46 -222 -74 -720 -244 -735 -251 -18 -7 -14 -6 -70 -22 -25 -7
-49 -16 -55 -19 -5 -4 -14 -7 -20 -9 -14 -2 -166 -53 -190 -63 -11 -5 -96 -34
-190 -66 -229 -77 -297 -112 -337 -172 -26 -40 -26 -310 0 -354 16 -28 109
-98 135 -102 7 -1 17 -4 22 -8 11 -7 352 -125 400 -138 17 -5 77 -25 135 -45
58 -21 195 -68 305 -105 110 -38 346 -119 525 -180 179 -61 377 -129 440 -150
63 -21 274 -93 468 -159 195 -67 364 -123 375 -125 12 -3 33 -8 47 -11 14 -3
41 -8 60 -11 19 -3 42 -7 50 -9 63 -17 372 -23 486 -11 182 21 261 41 529 133
347 119 463 159 480 163 6 1 60 20 120 42 61 22 126 44 145 49 19 6 44 14 55
19 11 5 67 24 125 43 58 20 224 76 370 127 146 50 272 93 280 95 14 4 427 145
460 158 8 3 71 24 140 47 240 80 300 109 346 171 23 31 24 40 24 182 0 93 -4
156 -12 170 -17 32 -67 74 -118 98 -41 20 -429 156 -710 249 -63 21 -194 66
-290 99 -279 96 -880 301 -940 321 -30 10 -174 59 -320 109 -145 50 -265 91
-267 91 -6 0 13 38 60 119 48 83 237 454 237 465 0 5 12 32 66 151 69 153 168
508 179 645 10 118 6 269 -9 336 -2 12 -7 39 -10 60 -11 68 -66 216 -113 303
-74 139 -183 269 -312 374 -112 90 -324 188 -476 218 -79 16 -287 32 -298 23z
m158 -668 c50 -8 152 -51 194 -82 176 -130 251 -343 194 -549 -36 -128 -133
-248 -246 -304 -106 -52 -136 -59 -243 -57 -115 3 -126 6 -210 45 -66 31 -71
34 -132 91 -221 208 -201 571 41 759 60 46 157 89 220 98 23 3 43 6 45 8 4 3
97 -3 137 -9z"/>
</g>
</svg>
