<?xml version="1.0" standalone="no"?>
<!DOCTYPE svg PUBLIC "-//W3C//DTD SVG 20010904//EN"
 "http://www.w3.org/TR/2001/REC-SVG-20010904/DTD/svg10.dtd">
<svg version="1.0" xmlns="http://www.w3.org/2000/svg"
 width="350.000000pt" height="350.000000pt" viewBox="0 0 350.000000 350.000000"
 preserveAspectRatio="xMidYMid meet">
<metadata>
Created by potrace 1.11, written by Peter Selinger 2001-2013
</metadata>
<g transform="translate(0.000000,350.000000) scale(0.100000,-0.100000)"
fill="#000000" stroke="none">
<path d="M1215 3264 c-77 -13 -152 -47 -204 -91 l-34 -29 -54 22 c-187 76
-378 -93 -317 -280 9 -27 33 -65 53 -86 l36 -38 -35 -12 c-52 -19 -107 -56
-126 -86 -33 -50 -14 -378 24 -416 5 -5 28 4 58 24 133 88 133 88 116 3 -14
-66 -51 -161 -125 -315 -74 -154 -84 -180 -108 -274 -35 -137 -25 -335 21
-426 25 -48 66 -85 120 -107 87 -36 180 -10 232 65 l16 23 30 -53 c40 -69 56
-90 122 -157 69 -71 111 -102 202 -150 74 -39 225 -91 266 -91 27 0 39 -24 35
-74 -3 -48 -5 -50 -51 -52 -116 -4 -248 -26 -359 -61 -37 -11 -53 -21 -53 -33
0 -28 43 -39 135 -36 47 1 85 0 85 -3 0 -3 -19 -17 -42 -31 -52 -32 -84 -65
-107 -111 -18 -36 -17 -59 2 -59 6 0 46 18 90 41 72 37 178 65 192 51 3 -3
-17 -18 -43 -33 -92 -52 -167 -169 -109 -169 7 0 68 28 137 61 69 34 169 81
222 104 l98 42 77 -13 c105 -19 186 -28 258 -28 54 -1 60 1 57 19 -5 23 -23
38 -84 66 -31 15 -45 26 -41 36 11 27 -41 65 -143 103 l-25 10 28 37 c51 68
171 164 257 206 69 33 155 91 210 140 l39 35 61 -40 c56 -38 166 -119 192
-143 6 -5 29 -26 50 -45 22 -19 45 -36 51 -37 10 -2 127 162 162 227 155 289
218 504 219 745 0 147 -15 233 -59 344 -121 302 -423 495 -839 536 -140 14
-177 13 -191 -4 -36 -41 -102 -152 -154 -259 l-58 -117 -106 -1 c-58 -1 -136
-8 -173 -16 -65 -14 -73 -12 -70 13 4 27 38 190 61 292 11 46 22 94 25 107 2
14 12 63 21 110 25 125 24 221 -3 306 -52 159 -181 237 -347 208z"/>
</g>
</svg>
